<mxfile host="app.diagrams.net" agent="Mozilla/5.0 (Macintosh; Intel Mac OS X 10_15_7) AppleWebKit/605.1.15 (KHTML, like Gecko) Version/17.6 Safari/605.1.15" version="24.7.16">
  <diagram name="Page-1" id="UHTLzjkn6akkXgr3sJ76">
    <mxGraphModel dx="1177" dy="1330" grid="0" gridSize="10" guides="1" tooltips="1" connect="1" arrows="1" fold="1" page="0" pageScale="1" pageWidth="850" pageHeight="1100" math="0" shadow="0">
      <root>
        <mxCell id="0" />
        <mxCell id="1" parent="0" />
        <mxCell id="U758MEhYooCLYz5TgYB6-3" value="" style="edgeStyle=none;curved=1;rounded=0;orthogonalLoop=1;jettySize=auto;html=1;fontSize=12;startSize=8;endSize=8;" parent="1" source="U758MEhYooCLYz5TgYB6-1" target="U758MEhYooCLYz5TgYB6-2" edge="1">
          <mxGeometry relative="1" as="geometry" />
        </mxCell>
        <mxCell id="U758MEhYooCLYz5TgYB6-1" value="n1,n2,n3" style="rounded=1;whiteSpace=wrap;html=1;" parent="1" vertex="1">
          <mxGeometry x="123" y="-150" width="120" height="60" as="geometry" />
        </mxCell>
        <mxCell id="U758MEhYooCLYz5TgYB6-5" value="" style="edgeStyle=none;curved=1;rounded=0;orthogonalLoop=1;jettySize=auto;html=1;fontSize=12;startSize=8;endSize=8;" parent="1" source="U758MEhYooCLYz5TgYB6-2" target="U758MEhYooCLYz5TgYB6-4" edge="1">
          <mxGeometry relative="1" as="geometry" />
        </mxCell>
        <mxCell id="U758MEhYooCLYz5TgYB6-10" value="" style="edgeStyle=none;curved=1;rounded=0;orthogonalLoop=1;jettySize=auto;html=1;fontSize=12;startSize=8;endSize=8;" parent="1" source="U758MEhYooCLYz5TgYB6-2" target="U758MEhYooCLYz5TgYB6-9" edge="1">
          <mxGeometry relative="1" as="geometry" />
        </mxCell>
        <mxCell id="U758MEhYooCLYz5TgYB6-2" value="n1 &amp;lt; n2" style="rounded=1;whiteSpace=wrap;html=1;" parent="1" vertex="1">
          <mxGeometry x="123" y="30" width="120" height="60" as="geometry" />
        </mxCell>
        <mxCell id="U758MEhYooCLYz5TgYB6-7" value="" style="edgeStyle=none;curved=1;rounded=0;orthogonalLoop=1;jettySize=auto;html=1;fontSize=12;startSize=8;endSize=8;" parent="1" source="U758MEhYooCLYz5TgYB6-4" target="U758MEhYooCLYz5TgYB6-6" edge="1">
          <mxGeometry relative="1" as="geometry" />
        </mxCell>
        <mxCell id="U758MEhYooCLYz5TgYB6-17" value="" style="edgeStyle=none;curved=1;rounded=0;orthogonalLoop=1;jettySize=auto;html=1;fontSize=12;startSize=8;endSize=8;" parent="1" source="U758MEhYooCLYz5TgYB6-4" target="U758MEhYooCLYz5TgYB6-16" edge="1">
          <mxGeometry relative="1" as="geometry" />
        </mxCell>
        <mxCell id="U758MEhYooCLYz5TgYB6-4" value="n1 &amp;lt; n3" style="rounded=1;whiteSpace=wrap;html=1;" parent="1" vertex="1">
          <mxGeometry x="-49" y="32" width="120" height="60" as="geometry" />
        </mxCell>
        <mxCell id="U758MEhYooCLYz5TgYB6-6" value="n1 = max" style="rounded=1;whiteSpace=wrap;html=1;" parent="1" vertex="1">
          <mxGeometry x="60" y="149" width="120" height="60" as="geometry" />
        </mxCell>
        <mxCell id="U758MEhYooCLYz5TgYB6-8" value="true" style="text;html=1;align=center;verticalAlign=middle;resizable=0;points=[];autosize=1;strokeColor=none;fillColor=none;fontSize=16;" parent="1" vertex="1">
          <mxGeometry x="65.5" y="-0.5" width="45" height="31" as="geometry" />
        </mxCell>
        <mxCell id="U758MEhYooCLYz5TgYB6-13" value="" style="edgeStyle=none;curved=1;rounded=0;orthogonalLoop=1;jettySize=auto;html=1;fontSize=12;startSize=8;endSize=8;" parent="1" source="U758MEhYooCLYz5TgYB6-9" target="U758MEhYooCLYz5TgYB6-12" edge="1">
          <mxGeometry relative="1" as="geometry" />
        </mxCell>
        <mxCell id="U758MEhYooCLYz5TgYB6-15" value="" style="edgeStyle=none;curved=1;rounded=0;orthogonalLoop=1;jettySize=auto;html=1;fontSize=12;startSize=8;endSize=8;" parent="1" source="U758MEhYooCLYz5TgYB6-9" target="U758MEhYooCLYz5TgYB6-14" edge="1">
          <mxGeometry relative="1" as="geometry" />
        </mxCell>
        <mxCell id="U758MEhYooCLYz5TgYB6-9" value="n1 &amp;gt; n3" style="whiteSpace=wrap;html=1;rounded=1;" parent="1" vertex="1">
          <mxGeometry x="363" y="30" width="120" height="60" as="geometry" />
        </mxCell>
        <mxCell id="U758MEhYooCLYz5TgYB6-11" value="false" style="text;html=1;align=center;verticalAlign=middle;resizable=0;points=[];autosize=1;strokeColor=none;fillColor=none;fontSize=16;" parent="1" vertex="1">
          <mxGeometry x="256.5" y="9.5" width="52" height="31" as="geometry" />
        </mxCell>
        <mxCell id="U758MEhYooCLYz5TgYB6-31" value="" style="edgeStyle=none;curved=1;rounded=0;orthogonalLoop=1;jettySize=auto;html=1;fontSize=12;startSize=8;endSize=8;" parent="1" source="U758MEhYooCLYz5TgYB6-12" target="U758MEhYooCLYz5TgYB6-30" edge="1">
          <mxGeometry relative="1" as="geometry" />
        </mxCell>
        <mxCell id="U758MEhYooCLYz5TgYB6-12" value="n1 = maxnum" style="whiteSpace=wrap;html=1;rounded=1;" parent="1" vertex="1">
          <mxGeometry x="263" y="181" width="120" height="60" as="geometry" />
        </mxCell>
        <mxCell id="U758MEhYooCLYz5TgYB6-14" value="n3 = maxnum&lt;div&gt;n1 = other&lt;/div&gt;&lt;div&gt;n2 = minnum&lt;/div&gt;" style="whiteSpace=wrap;html=1;rounded=1;" parent="1" vertex="1">
          <mxGeometry x="469" y="181" width="120" height="60" as="geometry" />
        </mxCell>
        <mxCell id="U758MEhYooCLYz5TgYB6-19" value="" style="edgeStyle=none;curved=1;rounded=0;orthogonalLoop=1;jettySize=auto;html=1;fontSize=12;startSize=8;endSize=8;" parent="1" source="U758MEhYooCLYz5TgYB6-16" target="U758MEhYooCLYz5TgYB6-18" edge="1">
          <mxGeometry relative="1" as="geometry" />
        </mxCell>
        <mxCell id="U758MEhYooCLYz5TgYB6-16" value="&lt;div&gt;if true&lt;/div&gt;&lt;div&gt;minnum = n1&lt;/div&gt;" style="rounded=1;whiteSpace=wrap;html=1;" parent="1" vertex="1">
          <mxGeometry x="-49" y="212" width="120" height="60" as="geometry" />
        </mxCell>
        <mxCell id="U758MEhYooCLYz5TgYB6-21" value="" style="edgeStyle=none;curved=1;rounded=0;orthogonalLoop=1;jettySize=auto;html=1;fontSize=12;startSize=8;endSize=8;" parent="1" source="U758MEhYooCLYz5TgYB6-18" target="U758MEhYooCLYz5TgYB6-20" edge="1">
          <mxGeometry relative="1" as="geometry" />
        </mxCell>
        <mxCell id="U758MEhYooCLYz5TgYB6-23" value="" style="edgeStyle=none;curved=1;rounded=0;orthogonalLoop=1;jettySize=auto;html=1;fontSize=12;startSize=8;endSize=8;" parent="1" source="U758MEhYooCLYz5TgYB6-18" target="U758MEhYooCLYz5TgYB6-20" edge="1">
          <mxGeometry relative="1" as="geometry" />
        </mxCell>
        <mxCell id="U758MEhYooCLYz5TgYB6-24" value="" style="edgeStyle=none;curved=1;rounded=0;orthogonalLoop=1;jettySize=auto;html=1;fontSize=12;startSize=8;endSize=8;" parent="1" source="U758MEhYooCLYz5TgYB6-18" target="U758MEhYooCLYz5TgYB6-20" edge="1">
          <mxGeometry relative="1" as="geometry" />
        </mxCell>
        <mxCell id="U758MEhYooCLYz5TgYB6-25" value="" style="edgeStyle=none;curved=1;rounded=0;orthogonalLoop=1;jettySize=auto;html=1;fontSize=12;startSize=8;endSize=8;" parent="1" source="U758MEhYooCLYz5TgYB6-18" target="U758MEhYooCLYz5TgYB6-20" edge="1">
          <mxGeometry relative="1" as="geometry" />
        </mxCell>
        <mxCell id="U758MEhYooCLYz5TgYB6-18" value="n3 &amp;lt; n2" style="whiteSpace=wrap;html=1;rounded=1;" parent="1" vertex="1">
          <mxGeometry x="-49" y="321" width="124" height="70" as="geometry" />
        </mxCell>
        <mxCell id="U758MEhYooCLYz5TgYB6-20" value="other = n3&lt;div&gt;max = n2&lt;/div&gt;" style="whiteSpace=wrap;html=1;rounded=1;" parent="1" vertex="1">
          <mxGeometry x="-123" y="452" width="120" height="60" as="geometry" />
        </mxCell>
        <mxCell id="U758MEhYooCLYz5TgYB6-22" value="true" style="text;html=1;align=center;verticalAlign=middle;resizable=0;points=[];autosize=1;strokeColor=none;fillColor=none;fontSize=16;" parent="1" vertex="1">
          <mxGeometry x="-109" y="399" width="45" height="31" as="geometry" />
        </mxCell>
        <mxCell id="U758MEhYooCLYz5TgYB6-26" value="other = n2&lt;div&gt;max = n3&lt;/div&gt;" style="whiteSpace=wrap;html=1;rounded=1;" parent="1" vertex="1">
          <mxGeometry x="52" y="452" width="120" height="60" as="geometry" />
        </mxCell>
        <mxCell id="U758MEhYooCLYz5TgYB6-28" value="" style="endArrow=classic;html=1;rounded=0;fontSize=12;startSize=8;endSize=8;curved=1;" parent="1" edge="1">
          <mxGeometry width="50" height="50" relative="1" as="geometry">
            <mxPoint x="43.5" y="395" as="sourcePoint" />
            <mxPoint x="88" y="450" as="targetPoint" />
          </mxGeometry>
        </mxCell>
        <mxCell id="U758MEhYooCLYz5TgYB6-29" value="false" style="text;html=1;align=center;verticalAlign=middle;resizable=0;points=[];autosize=1;strokeColor=none;fillColor=none;fontSize=16;" parent="1" vertex="1">
          <mxGeometry x="92.5" y="386.5" width="52" height="31" as="geometry" />
        </mxCell>
        <mxCell id="U758MEhYooCLYz5TgYB6-34" value="" style="edgeStyle=none;curved=1;rounded=0;orthogonalLoop=1;jettySize=auto;html=1;fontSize=12;startSize=8;endSize=8;" parent="1" source="U758MEhYooCLYz5TgYB6-30" target="U758MEhYooCLYz5TgYB6-33" edge="1">
          <mxGeometry relative="1" as="geometry" />
        </mxCell>
        <mxCell id="U758MEhYooCLYz5TgYB6-36" value="" style="edgeStyle=none;curved=1;rounded=0;orthogonalLoop=1;jettySize=auto;html=1;fontSize=12;startSize=8;endSize=8;" parent="1" source="U758MEhYooCLYz5TgYB6-30" target="U758MEhYooCLYz5TgYB6-33" edge="1">
          <mxGeometry relative="1" as="geometry" />
        </mxCell>
        <mxCell id="U758MEhYooCLYz5TgYB6-37" value="" style="edgeStyle=none;curved=1;rounded=0;orthogonalLoop=1;jettySize=auto;html=1;fontSize=12;startSize=8;endSize=8;" parent="1" source="U758MEhYooCLYz5TgYB6-30" target="U758MEhYooCLYz5TgYB6-33" edge="1">
          <mxGeometry relative="1" as="geometry" />
        </mxCell>
        <mxCell id="U758MEhYooCLYz5TgYB6-30" value="n2 &amp;gt; n3" style="whiteSpace=wrap;html=1;rounded=1;" parent="1" vertex="1">
          <mxGeometry x="250" y="321" width="120" height="60" as="geometry" />
        </mxCell>
        <mxCell id="U758MEhYooCLYz5TgYB6-32" value="true" style="text;html=1;align=center;verticalAlign=middle;resizable=0;points=[];autosize=1;strokeColor=none;fillColor=none;fontSize=16;" parent="1" vertex="1">
          <mxGeometry x="293.5" y="116.5" width="45" height="31" as="geometry" />
        </mxCell>
        <mxCell id="U758MEhYooCLYz5TgYB6-33" value="other = n2&lt;div&gt;minnum = n3&lt;/div&gt;" style="rounded=1;whiteSpace=wrap;html=1;" parent="1" vertex="1">
          <mxGeometry x="201" y="452" width="120" height="60" as="geometry" />
        </mxCell>
        <mxCell id="U758MEhYooCLYz5TgYB6-35" value="true" style="text;html=1;align=center;verticalAlign=middle;resizable=0;points=[];autosize=1;strokeColor=none;fillColor=none;fontSize=16;" parent="1" vertex="1">
          <mxGeometry x="198.5" y="391.5" width="45" height="31" as="geometry" />
        </mxCell>
        <mxCell id="U758MEhYooCLYz5TgYB6-38" value="other = n3&lt;div&gt;minnum = n2&lt;/div&gt;" style="rounded=1;whiteSpace=wrap;html=1;" parent="1" vertex="1">
          <mxGeometry x="358" y="452" width="120" height="60" as="geometry" />
        </mxCell>
        <mxCell id="U758MEhYooCLYz5TgYB6-40" value="" style="endArrow=classic;html=1;rounded=0;fontSize=12;startSize=8;endSize=8;curved=1;exitX=0.808;exitY=0.984;exitDx=0;exitDy=0;exitPerimeter=0;entryX=0.333;entryY=0.05;entryDx=0;entryDy=0;entryPerimeter=0;" parent="1" source="U758MEhYooCLYz5TgYB6-30" target="U758MEhYooCLYz5TgYB6-38" edge="1">
          <mxGeometry width="50" height="50" relative="1" as="geometry">
            <mxPoint x="345" y="430" as="sourcePoint" />
            <mxPoint x="398" y="445" as="targetPoint" />
          </mxGeometry>
        </mxCell>
        <mxCell id="U758MEhYooCLYz5TgYB6-43" value="false" style="text;html=1;align=center;verticalAlign=middle;resizable=0;points=[];autosize=1;strokeColor=none;fillColor=none;fontSize=16;" parent="1" vertex="1">
          <mxGeometry x="514.5" y="117.5" width="52" height="31" as="geometry" />
        </mxCell>
      </root>
    </mxGraphModel>
  </diagram>
</mxfile>
